{"asset":{"version":"2.0","generator":"babylon.js glTF exporter for Maya 2018 v1.0.0"},"scene":0,"scenes":[{"nodes":[0,8],"extensions":{}}],"nodes":[{"children":[1,2,3],"translation":[0.0,0.0,0.0],"rotation":[0.0,0.0,0.0,1.0],"scale":[1.0,1.0,1.0],"name":"logo"},{"mesh":0,"translation":[0.0,0.0,0.0],"rotation":[0.0,0.0,0.0,1.0],"scale":[1.0,1.0,1.0],"name":"c","extras":{"currentUVSet":"map1"}},{"mesh":1,"translation":[0.0,0.0,0.0],"rotation":[0.0,0.0,0.0,1.0],"scale":[1.0,1.0,1.0],"name":"e","extras":{"currentUVSet":"map1"}},{"children":[4,5,6,7],"translation":[0.0,0.0,0.0],"rotation":[0.0,0.0,0.0,1.0],"scale":[1.0,1.0,1.0],"name":"yuan"},{"mesh":2,"translation":[0.0,0.0,0.0],"rotation":[0.0,0.0,0.0,1.0],"scale":[1.0,1.0,1.0],"name":"pCylinder1","extras":{"currentUVSet":"map1"}},{"mesh":3,"translation":[0.0,0.0,0.0],"rotation":[0.0,0.0,0.0,1.0],"scale":[1.0,1.0,1.0],"name":"pPlane4","extras":{"currentUVSet":"map1"}},{"mesh":4,"translation":[0.0,0.0,0.0],"rotation":[0.0,0.0,0.0,1.0],"scale":[1.0,1.0,1.0],"name":"pPlane5","extras":{"currentUVSet":"map1"}},{"mesh":5,"translation":[0.0,0.0,0.0],"rotation":[0.0,0.0,0.0,1.0],"scale":[1.0,1.0,1.0],"name":"pCube1","extras":{"currentUVSet":"map1"}},{"translation":[0.0,0.0,0.0],"rotation":[0.0,0.0,0.0,1.0],"scale":[1.0,1.0,1.0],"name":"Default light"}],"meshes":[{"primitives":[{"attributes":{"POSITION":1,"TANGENT":2,"NORMAL":3,"COLOR_0":4,"TEXCOORD_0":5},"indices":0,"mode":4,"material":0}],"name":"c"},{"primitives":[{"attributes":{"POSITION":7,"TANGENT":8,"NORMAL":9,"COLOR_0":10,"TEXCOORD_0":11},"indices":6,"mode":4,"material":0}],"name":"e"},{"primitives":[{"attributes":{"POSITION":13,"TANGENT":14,"NORMAL":15,"TEXCOORD_0":16},"indices":12,"mode":4,"material":1}],"name":"pCylinder1"},{"primitives":[{"attributes":{"POSITION":18,"TANGENT":19,"NORMAL":20,"TEXCOORD_0":21},"indices":17,"mode":4,"material":2}],"name":"pPlane4"},{"primitives":[{"attributes":{"POSITION":23,"TANGENT":24,"NORMAL":25,"TEXCOORD_0":26},"indices":22,"mode":4,"material":2}],"name":"pPlane5"},{"primitives":[{"attributes":{"POSITION":28,"TANGENT":29,"NORMAL":30,"TEXCOORD_0":31},"indices":27,"mode":4,"material":2}],"name":"pCube1"}],"accessors":[{"bufferView":0,"componentType":5123,"count":2724,"type":"SCALAR","name":"accessorIndices"},{"bufferView":1,"componentType":5126,"count":1154,"max":[-409.1085,24.8202858,-755.8953],"min":[-459.1073,13.4539146,-762.9651],"type":"VEC3","name":"accessorPositions"},{"bufferView":2,"componentType":5126,"count":1154,"type":"VEC4","name":"accessorTangents"},{"bufferView":1,"byteOffset":13848,"componentType":5126,"count":1154,"type":"VEC3","name":"accessorNormals"},{"bufferView":2,"byteOffset":18464,"componentType":5126,"count":1154,"type":"VEC4","name":"accessorColors"},{"bufferView":3,"componentType":5126,"count":1154,"type":"VEC2","name":"accessorUVs"},{"bufferView":0,"byteOffset":5448,"componentType":5123,"count":4020,"type":"SCALAR","name":"accessorIndices"},{"bufferView":1,"byteOffset":27696,"componentType":5126,"count":1604,"max":[-409.81842,12.2940512,-758.823853],"min":[-456.8938,6.618339,-764.3256],"type":"VEC3","name":"accessorPositions"},{"bufferView":2,"byteOffset":36928,"componentType":5126,"count":1604,"type":"VEC4","name":"accessorTangents"},{"bufferView":1,"byteOffset":46944,"componentType":5126,"count":1604,"type":"VEC3","name":"accessorNormals"},{"bufferView":2,"byteOffset":62592,"componentType":5126,"count":1604,"type":"VEC4","name":"accessorColors"},{"bufferView":3,"byteOffset":9232,"componentType":5126,"count":1604,"type":"VEC2","name":"accessorUVs"},{"bufferView":0,"byteOffset":13488,"componentType":5123,"count":240,"type":"SCALAR","name":"accessorIndices"},{"bufferView":1,"byteOffset":66192,"componentType":5126,"count":84,"max":[-386.503021,26.5381527,-754.091431],"min":[-406.546539,6.6141243,-761.0176],"type":"VEC3","name":"accessorPositions"},{"bufferView":2,"byteOffset":88256,"componentType":5126,"count":84,"type":"VEC4","name":"accessorTangents"},{"bufferView":1,"byteOffset":67200,"componentType":5126,"count":84,"type":"VEC3","name":"accessorNormals"},{"bufferView":3,"byteOffset":22064,"componentType":5126,"count":84,"type":"VEC2","name":"accessorUVs"},{"bufferView":0,"byteOffset":13968,"componentType":5123,"count":492,"type":"SCALAR","name":"accessorIndices"},{"bufferView":1,"byteOffset":68208,"componentType":5126,"count":170,"max":[-395.5784,22.655571,-757.464844],"min":[-401.668518,12.8447218,-760.4437],"type":"VEC3","name":"accessorPositions"},{"bufferView":2,"byteOffset":89600,"componentType":5126,"count":170,"type":"VEC4","name":"accessorTangents"},{"bufferView":1,"byteOffset":70248,"componentType":5126,"count":170,"type":"VEC3","name":"accessorNormals"},{"bufferView":3,"byteOffset":22736,"componentType":5126,"count":170,"type":"VEC2","name":"accessorUVs"},{"bufferView":0,"byteOffset":14952,"componentType":5123,"count":510,"type":"SCALAR","name":"accessorIndices"},{"bufferView":1,"byteOffset":72288,"componentType":5126,"count":184,"max":[-390.923462,28.9249554,-755.8858],"min":[-398.48645,13.0473967,-760.37],"type":"VEC3","name":"accessorPositions"},{"bufferView":2,"byteOffset":92320,"componentType":5126,"count":184,"type":"VEC4","name":"accessorTangents"},{"bufferView":1,"byteOffset":74496,"componentType":5126,"count":184,"type":"VEC3","name":"accessorNormals"},{"bufferView":3,"byteOffset":24096,"componentType":5126,"count":184,"type":"VEC2","name":"accessorUVs"},{"bufferView":0,"byteOffset":15972,"componentType":5123,"count":417,"type":"SCALAR","name":"accessorIndices"},{"bufferView":1,"byteOffset":76704,"componentType":5126,"count":155,"max":[-387.8851,14.1536217,-758.9112],"min":[-405.276855,10.5381594,-761.273743],"type":"VEC3","name":"accessorPositions"},{"bufferView":2,"byteOffset":95264,"componentType":5126,"count":155,"type":"VEC4","name":"accessorTangents"},{"bufferView":1,"byteOffset":78564,"componentType":5126,"count":155,"type":"VEC3","name":"accessorNormals"},{"bufferView":3,"byteOffset":25568,"componentType":5126,"count":155,"type":"VEC2","name":"accessorUVs"}],"bufferViews":[{"buffer":0,"byteLength":16808,"name":"bufferViewScalar"},{"buffer":0,"byteOffset":16808,"byteLength":80424,"byteStride":12,"name":"bufferViewFloatVec3"},{"buffer":0,"byteOffset":97232,"byteLength":97744,"byteStride":16,"name":"bufferViewFloatVec4"},{"buffer":0,"byteOffset":194976,"byteLength":26808,"byteStride":8,"name":"bufferViewFloatVec2"}],"buffers":[{"uri":"logo.bin","byteLength":221784}],"materials":[{"pbrMetallicRoughness":{"baseColorFactor":[0.8,0.20608,0.0,1.0],"metallicFactor":0.6098901,"roughnessFactor":0.1},"emissiveFactor":[0.0,0.0,0.0],"alphaMode":"OPAQUE","name":"aiStandardSurface16"},{"pbrMetallicRoughness":{"baseColorFactor":[0.0,0.2239,0.8956,1.0],"metallicFactor":0.615384638,"roughnessFactor":0.1},"emissiveFactor":[0.0,0.0,0.0],"alphaMode":"OPAQUE","name":"aiStandardSurface18"},{"pbrMetallicRoughness":{"baseColorFactor":[0.6549451,0.6549451,0.6549451,1.0],"metallicFactor":0.445054948,"roughnessFactor":0.1},"emissiveFactor":[0.0,0.0,0.0],"alphaMode":"OPAQUE","name":"aiStandardSurface17"}]}