{"asset":{"version":"2.0","generator":"babylon.js glTF exporter for Maya 2018 v1.0.0"},"scene":0,"scenes":[{"nodes":[0,3],"extensions":{}}],"nodes":[{"children":[1],"translation":[0.0,0.0,0.0],"rotation":[0.0,0.0,0.0,1.0],"scale":[1.0,1.0,1.0],"name":"group1"},{"children":[2],"translation":[0.0,0.0,0.0],"rotation":[0.0,0.0,0.0,1.0],"scale":[1.0,1.0,1.0],"name":"dimian37"},{"mesh":0,"translation":[0.0,0.0,0.0],"rotation":[0.0,0.0,0.0,1.0],"scale":[1.0,1.0,1.0],"name":"dimian25","extras":{"currentUVSet":"UVChannel_1","MaxHandle":61261}},{"translation":[0.0,0.0,0.0],"rotation":[0.0,0.0,0.0,1.0],"scale":[1.0,1.0,1.0],"name":"Default light"}],"meshes":[{"primitives":[{"attributes":{"POSITION":1,"TANGENT":2,"NORMAL":3,"TEXCOORD_0":4},"indices":0,"mode":4,"material":0},{"attributes":{"POSITION":6,"TANGENT":7,"NORMAL":8,"TEXCOORD_0":9},"indices":5,"mode":4,"material":1},{"attributes":{"POSITION":11,"TANGENT":12,"NORMAL":13,"TEXCOORD_0":14},"indices":10,"mode":4,"material":2},{"attributes":{"POSITION":16,"TANGENT":17,"NORMAL":18,"TEXCOORD_0":19},"indices":15,"mode":4,"material":3}],"name":"dimian25"}],"accessors":[{"bufferView":0,"componentType":5123,"count":51,"type":"SCALAR","name":"accessorIndices"},{"bufferView":1,"componentType":5126,"count":21,"max":[274.976563,0.0,992.043457],"min":[-88.02637,0.0,318.785156],"type":"VEC3","name":"accessorPositions"},{"bufferView":2,"componentType":5126,"count":21,"type":"VEC4","name":"accessorTangents"},{"bufferView":1,"byteOffset":252,"componentType":5126,"count":21,"type":"VEC3","name":"accessorNormals"},{"bufferView":3,"componentType":5126,"count":21,"type":"VEC2","name":"accessorUVs"},{"bufferView":0,"byteOffset":104,"componentType":5123,"count":3084,"type":"SCALAR","name":"accessorIndices"},{"bufferView":1,"byteOffset":504,"componentType":5126,"count":1732,"max":[275.976563,1.5,1360.79907],"min":[-730.622559,0.0,317.78418],"type":"VEC3","name":"accessorPositions"},{"bufferView":2,"byteOffset":336,"componentType":5126,"count":1732,"type":"VEC4","name":"accessorTangents"},{"bufferView":1,"byteOffset":21288,"componentType":5126,"count":1732,"type":"VEC3","name":"accessorNormals"},{"bufferView":3,"byteOffset":168,"componentType":5126,"count":1732,"type":"VEC2","name":"accessorUVs"},{"bufferView":0,"byteOffset":6272,"componentType":5123,"count":3486,"type":"SCALAR","name":"accessorIndices"},{"bufferView":1,"byteOffset":42072,"componentType":5126,"count":2054,"max":[586.6133,0.0,1061.65088],"min":[-803.5576,0.0,-732.630859],"type":"VEC3","name":"accessorPositions"},{"bufferView":2,"byteOffset":28048,"componentType":5126,"count":2054,"type":"VEC4","name":"accessorTangents"},{"bufferView":1,"byteOffset":66720,"componentType":5126,"count":2054,"type":"VEC3","name":"accessorNormals"},{"bufferView":3,"byteOffset":14024,"componentType":5126,"count":2054,"type":"VEC2","name":"accessorUVs"},{"bufferView":0,"byteOffset":13244,"componentType":5123,"count":204,"type":"SCALAR","name":"accessorIndices"},{"bufferView":1,"byteOffset":91368,"componentType":5126,"count":2043,"max":[586.6133,0.0,1050.38623],"min":[-803.5576,0.0,-730.130859],"type":"VEC3","name":"accessorPositions"},{"bufferView":2,"byteOffset":60912,"componentType":5126,"count":2043,"type":"VEC4","name":"accessorTangents"},{"bufferView":1,"byteOffset":115884,"componentType":5126,"count":2043,"type":"VEC3","name":"accessorNormals"},{"bufferView":3,"byteOffset":30456,"componentType":5126,"count":2043,"type":"VEC2","name":"accessorUVs"}],"bufferViews":[{"buffer":0,"byteLength":13652,"name":"bufferViewScalar"},{"buffer":0,"byteOffset":13652,"byteLength":140400,"byteStride":12,"name":"bufferViewFloatVec3"},{"buffer":0,"byteOffset":154052,"byteLength":93600,"byteStride":16,"name":"bufferViewFloatVec4"},{"buffer":0,"byteOffset":247652,"byteLength":46800,"byteStride":8,"name":"bufferViewFloatVec2"}],"buffers":[{"uri":"lumian.bin","byteLength":294452}],"materials":[{"pbrMetallicRoughness":{"baseColorFactor":[0.0568000041,0.10344,0.0568000041,1.0],"metallicFactor":0.0,"roughnessFactor":0.1},"emissiveFactor":[0.0,0.0,0.0],"alphaMode":"OPAQUE","name":"rdSurface11"},{"pbrMetallicRoughness":{"baseColorFactor":[1.0,1.0,1.0,1.0],"baseColorTexture":{"index":0,"texCoord":0},"metallicFactor":0.0,"roughnessFactor":0.3},"emissiveFactor":[0.0,0.0,0.0],"alphaMode":"OPAQUE","name":"ndardSurface2"},{"pbrMetallicRoughness":{"baseColorFactor":[0.8,0.8,0.8,1.0],"metallicFactor":0.0,"roughnessFactor":0.1},"emissiveFactor":[0.0,0.0,0.0],"alphaMode":"OPAQUE","name":"dardSurface7"},{"pbrMetallicRoughness":{"baseColorFactor":[0.8,0.53072,0.0,1.0],"metallicFactor":0.0,"roughnessFactor":0.1},"emissiveFactor":[0.0,0.0,0.0],"alphaMode":"OPAQUE","name":"dardSurface6"}],"textures":[{"sampler":0,"source":0,"name":"qiang01.png"}],"images":[{"uri":"qiang01.png"}],"samplers":[{"magFilter":9729,"minFilter":9987,"wrapS":10497,"wrapT":10497}]}