{"asset":{"version":"2.0","generator":"babylon.js glTF exporter for Maya 2018 v1.0.0"},"scene":0,"scenes":[{"nodes":[0,9,17],"extensions":{}}],"nodes":[{"children":[1],"translation":[0.0,0.0,0.0],"rotation":[0.0,0.0,0.0,1.0],"scale":[1.0,1.0,1.0],"name":"group1"},{"children":[2,3,4,5,6,7,8],"translation":[0.0,0.0,0.0],"rotation":[0.0,0.0,0.0,1.0],"scale":[1.0,1.0,1.0],"name":"dimian37"},{"mesh":0,"translation":[0.0,0.0,0.0],"rotation":[0.0,0.0,0.0,1.0],"scale":[1.0,1.0,1.0],"name":"dimian19","extras":{"currentUVSet":"UVChannel_1","MaxHandle":58823}},{"mesh":1,"translation":[0.0,0.0,0.0],"rotation":[0.0,0.0,0.0,1.0],"scale":[1.0,1.0,1.0],"name":"dimian20","extras":{"currentUVSet":"UVChannel_1","MaxHandle":58822}},{"mesh":2,"translation":[0.0,0.0,0.0],"rotation":[0.0,0.0,0.0,1.0],"scale":[1.0,1.0,1.0],"name":"dimian27","extras":{"currentUVSet":"UVChannel_1","MaxHandle":8239}},{"mesh":3,"translation":[0.0,0.0,0.0],"rotation":[0.0,0.0,0.0,1.0],"scale":[1.0,1.0,1.0],"name":"dimian29","extras":{"currentUVSet":"UVChannel_1","MaxHandle":58820}},{"mesh":4,"translation":[0.0,0.0,0.0],"rotation":[0.0,0.0,0.0,1.0],"scale":[1.0,1.0,1.0],"name":"dimian30","extras":{"currentUVSet":"UVChannel_1","MaxHandle":58824}},{"mesh":5,"translation":[0.0,0.0,0.0],"rotation":[0.0,0.0,0.0,1.0],"scale":[1.0,1.0,1.0],"name":"dimian31","extras":{"currentUVSet":"UVChannel_1","MaxHandle":58821}},{"mesh":6,"translation":[0.0,0.0,0.0],"rotation":[0.0,0.0,0.0,1.0],"scale":[1.0,1.0,1.0],"name":"dimian36","extras":{"currentUVSet":"UVChannel_1","MaxHandle":8238}},{"children":[10,11,12],"translation":[0.0,0.0,0.0],"rotation":[0.0,0.0,0.0,1.0],"scale":[1.0,1.0,1.0],"name":"logo"},{"mesh":7,"translation":[0.0,0.0,0.0],"rotation":[0.0,0.0,0.0,1.0],"scale":[1.0,1.0,1.0],"name":"c","extras":{"currentUVSet":"map1"}},{"mesh":8,"translation":[0.0,0.0,0.0],"rotation":[0.0,0.0,0.0,1.0],"scale":[1.0,1.0,1.0],"name":"e","extras":{"currentUVSet":"map1"}},{"children":[13,14,15,16],"translation":[0.0,0.0,0.0],"rotation":[0.0,0.0,0.0,1.0],"scale":[1.0,1.0,1.0],"name":"yuan"},{"mesh":9,"translation":[0.0,0.0,0.0],"rotation":[0.0,0.0,0.0,1.0],"scale":[1.0,1.0,1.0],"name":"pCylinder1","extras":{"currentUVSet":"map1"}},{"mesh":10,"translation":[0.0,0.0,0.0],"rotation":[0.0,0.0,0.0,1.0],"scale":[1.0,1.0,1.0],"name":"pPlane4","extras":{"currentUVSet":"map1"}},{"mesh":11,"translation":[0.0,0.0,0.0],"rotation":[0.0,0.0,0.0,1.0],"scale":[1.0,1.0,1.0],"name":"pPlane5","extras":{"currentUVSet":"map1"}},{"mesh":12,"translation":[0.0,0.0,0.0],"rotation":[0.0,0.0,0.0,1.0],"scale":[1.0,1.0,1.0],"name":"pCube1","extras":{"currentUVSet":"map1"}},{"translation":[0.0,0.0,0.0],"rotation":[0.0,0.0,0.0,1.0],"scale":[1.0,1.0,1.0],"name":"Default light"}],"meshes":[{"primitives":[{"attributes":{"POSITION":1,"TANGENT":2,"NORMAL":3,"TEXCOORD_0":4},"indices":0,"mode":4,"material":0}],"name":"dimian19"},{"primitives":[{"attributes":{"POSITION":6,"TANGENT":7,"NORMAL":8,"TEXCOORD_0":9},"indices":5,"mode":4,"material":0}],"name":"dimian20"},{"primitives":[{"attributes":{"POSITION":11,"TANGENT":12,"NORMAL":13,"TEXCOORD_0":14},"indices":10,"mode":4,"material":1}],"name":"dimian27"},{"primitives":[{"attributes":{"POSITION":16,"TANGENT":17,"NORMAL":18,"TEXCOORD_0":19},"indices":15,"mode":4,"material":0}],"name":"dimian29"},{"primitives":[{"attributes":{"POSITION":21,"TANGENT":22,"NORMAL":23,"TEXCOORD_0":24},"indices":20,"mode":4,"material":0}],"name":"dimian30"},{"primitives":[{"attributes":{"POSITION":26,"TANGENT":27,"NORMAL":28,"TEXCOORD_0":29},"indices":25,"mode":4,"material":0}],"name":"dimian31"},{"primitives":[{"attributes":{"POSITION":31,"TANGENT":32,"NORMAL":33,"TEXCOORD_0":34},"indices":30,"mode":4,"material":2}],"name":"dimian36"},{"primitives":[{"attributes":{"POSITION":36,"TANGENT":37,"NORMAL":38,"COLOR_0":39,"TEXCOORD_0":40},"indices":35,"mode":4,"material":3}],"name":"c"},{"primitives":[{"attributes":{"POSITION":42,"TANGENT":43,"NORMAL":44,"COLOR_0":45,"TEXCOORD_0":46},"indices":41,"mode":4,"material":3}],"name":"e"},{"primitives":[{"attributes":{"POSITION":48,"TANGENT":49,"NORMAL":50,"TEXCOORD_0":51},"indices":47,"mode":4,"material":4}],"name":"pCylinder1"},{"primitives":[{"attributes":{"POSITION":53,"TANGENT":54,"NORMAL":55,"TEXCOORD_0":56},"indices":52,"mode":4,"material":5}],"name":"pPlane4"},{"primitives":[{"attributes":{"POSITION":58,"TANGENT":59,"NORMAL":60,"TEXCOORD_0":61},"indices":57,"mode":4,"material":5}],"name":"pPlane5"},{"primitives":[{"attributes":{"POSITION":63,"TANGENT":64,"NORMAL":65,"TEXCOORD_0":66},"indices":62,"mode":4,"material":5}],"name":"pCube1"}],"accessors":[{"bufferView":0,"componentType":5123,"count":216,"type":"SCALAR","name":"accessorIndices"},{"bufferView":1,"componentType":5126,"count":77,"max":[621.5742,25.0000019,-698.214844],"min":[-121.104492,0.0,-724.160156],"type":"VEC3","name":"accessorPositions"},{"bufferView":2,"componentType":5126,"count":77,"type":"VEC4","name":"accessorTangents"},{"bufferView":1,"byteOffset":924,"componentType":5126,"count":77,"type":"VEC3","name":"accessorNormals"},{"bufferView":3,"componentType":5126,"count":77,"type":"VEC2","name":"accessorUVs"},{"bufferView":0,"byteOffset":432,"componentType":5123,"count":36,"type":"SCALAR","name":"accessorIndices"},{"bufferView":1,"byteOffset":1848,"componentType":5126,"count":24,"max":[627.1875,25.0,1566.67407],"min":[621.5742,0.0,-701.2168],"type":"VEC3","name":"accessorPositions"},{"bufferView":2,"byteOffset":1232,"componentType":5126,"count":24,"type":"VEC4","name":"accessorTangents"},{"bufferView":1,"byteOffset":2136,"componentType":5126,"count":24,"type":"VEC3","name":"accessorNormals"},{"bufferView":3,"byteOffset":616,"componentType":5126,"count":24,"type":"VEC2","name":"accessorUVs"},{"bufferView":0,"byteOffset":504,"componentType":5123,"count":36,"type":"SCALAR","name":"accessorIndices"},{"bufferView":1,"byteOffset":2424,"componentType":5126,"count":24,"max":[-365.34375,29.7402344,-740.266],"min":[-484.915039,27.4394531,-760.5062],"type":"VEC3","name":"accessorPositions"},{"bufferView":2,"byteOffset":1616,"componentType":5126,"count":24,"type":"VEC4","name":"accessorTangents"},{"bufferView":1,"byteOffset":2712,"componentType":5126,"count":24,"type":"VEC3","name":"accessorNormals"},{"bufferView":3,"byteOffset":808,"componentType":5126,"count":24,"type":"VEC2","name":"accessorUVs"},{"bufferView":0,"byteOffset":576,"componentType":5123,"count":36,"type":"SCALAR","name":"accessorIndices"},{"bufferView":1,"byteOffset":3000,"componentType":5126,"count":24,"max":[-907.827148,25.0,1544.58167],"min":[-1051.5918,0.0,-789.123047],"type":"VEC3","name":"accessorPositions"},{"bufferView":2,"byteOffset":2000,"componentType":5126,"count":24,"type":"VEC4","name":"accessorTangents"},{"bufferView":1,"byteOffset":3288,"componentType":5126,"count":24,"type":"VEC3","name":"accessorNormals"},{"bufferView":3,"byteOffset":1000,"componentType":5126,"count":24,"type":"VEC2","name":"accessorUVs"},{"bufferView":0,"byteOffset":648,"componentType":5123,"count":36,"type":"SCALAR","name":"accessorIndices"},{"bufferView":1,"byteOffset":3576,"componentType":5126,"count":24,"max":[-360.9619,25.0,-742.3301],"min":[-911.04834,0.0,-789.269531],"type":"VEC3","name":"accessorPositions"},{"bufferView":2,"byteOffset":2384,"componentType":5126,"count":24,"type":"VEC4","name":"accessorTangents"},{"bufferView":1,"byteOffset":3864,"componentType":5126,"count":24,"type":"VEC3","name":"accessorNormals"},{"bufferView":3,"byteOffset":1192,"componentType":5126,"count":24,"type":"VEC2","name":"accessorUVs"},{"bufferView":0,"byteOffset":720,"componentType":5123,"count":36,"type":"SCALAR","name":"accessorIndices"},{"bufferView":1,"byteOffset":4152,"componentType":5126,"count":24,"max":[626.931641,25.0,1566.98645],"min":[-1049.85352,0.0,1541.50623],"type":"VEC3","name":"accessorPositions"},{"bufferView":2,"byteOffset":2768,"componentType":5126,"count":24,"type":"VEC4","name":"accessorTangents"},{"bufferView":1,"byteOffset":4440,"componentType":5126,"count":24,"type":"VEC3","name":"accessorNormals"},{"bufferView":3,"byteOffset":1384,"componentType":5126,"count":24,"type":"VEC2","name":"accessorUVs"},{"bufferView":0,"byteOffset":792,"componentType":5123,"count":84,"type":"SCALAR","name":"accessorIndices"},{"bufferView":1,"byteOffset":4728,"componentType":5126,"count":48,"max":[-367.035156,27.4394531,-740.3871],"min":[-481.9209,0.0,-765.312866],"type":"VEC3","name":"accessorPositions"},{"bufferView":2,"byteOffset":3152,"componentType":5126,"count":48,"type":"VEC4","name":"accessorTangents"},{"bufferView":1,"byteOffset":5304,"componentType":5126,"count":48,"type":"VEC3","name":"accessorNormals"},{"bufferView":3,"byteOffset":1576,"componentType":5126,"count":48,"type":"VEC2","name":"accessorUVs"},{"bufferView":0,"byteOffset":960,"componentType":5123,"count":2724,"type":"SCALAR","name":"accessorIndices"},{"bufferView":1,"byteOffset":5880,"componentType":5126,"count":1154,"max":[-409.1085,24.8202858,-755.8953],"min":[-459.1073,13.4539146,-762.9651],"type":"VEC3","name":"accessorPositions"},{"bufferView":2,"byteOffset":3920,"componentType":5126,"count":1154,"type":"VEC4","name":"accessorTangents"},{"bufferView":1,"byteOffset":19728,"componentType":5126,"count":1154,"type":"VEC3","name":"accessorNormals"},{"bufferView":2,"byteOffset":22384,"componentType":5126,"count":1154,"type":"VEC4","name":"accessorColors"},{"bufferView":3,"byteOffset":1960,"componentType":5126,"count":1154,"type":"VEC2","name":"accessorUVs"},{"bufferView":0,"byteOffset":6408,"componentType":5123,"count":4020,"type":"SCALAR","name":"accessorIndices"},{"bufferView":1,"byteOffset":33576,"componentType":5126,"count":1604,"max":[-409.81842,12.2940512,-758.823853],"min":[-456.8938,6.618339,-764.3256],"type":"VEC3","name":"accessorPositions"},{"bufferView":2,"byteOffset":40848,"componentType":5126,"count":1604,"type":"VEC4","name":"accessorTangents"},{"bufferView":1,"byteOffset":52824,"componentType":5126,"count":1604,"type":"VEC3","name":"accessorNormals"},{"bufferView":2,"byteOffset":66512,"componentType":5126,"count":1604,"type":"VEC4","name":"accessorColors"},{"bufferView":3,"byteOffset":11192,"componentType":5126,"count":1604,"type":"VEC2","name":"accessorUVs"},{"bufferView":0,"byteOffset":14448,"componentType":5123,"count":240,"type":"SCALAR","name":"accessorIndices"},{"bufferView":1,"byteOffset":72072,"componentType":5126,"count":84,"max":[-386.503021,26.5381527,-754.091431],"min":[-406.546539,6.6141243,-761.0176],"type":"VEC3","name":"accessorPositions"},{"bufferView":2,"byteOffset":92176,"componentType":5126,"count":84,"type":"VEC4","name":"accessorTangents"},{"bufferView":1,"byteOffset":73080,"componentType":5126,"count":84,"type":"VEC3","name":"accessorNormals"},{"bufferView":3,"byteOffset":24024,"componentType":5126,"count":84,"type":"VEC2","name":"accessorUVs"},{"bufferView":0,"byteOffset":14928,"componentType":5123,"count":492,"type":"SCALAR","name":"accessorIndices"},{"bufferView":1,"byteOffset":74088,"componentType":5126,"count":170,"max":[-395.5784,22.655571,-757.464844],"min":[-401.668518,12.8447218,-760.4437],"type":"VEC3","name":"accessorPositions"},{"bufferView":2,"byteOffset":93520,"componentType":5126,"count":170,"type":"VEC4","name":"accessorTangents"},{"bufferView":1,"byteOffset":76128,"componentType":5126,"count":170,"type":"VEC3","name":"accessorNormals"},{"bufferView":3,"byteOffset":24696,"componentType":5126,"count":170,"type":"VEC2","name":"accessorUVs"},{"bufferView":0,"byteOffset":15912,"componentType":5123,"count":510,"type":"SCALAR","name":"accessorIndices"},{"bufferView":1,"byteOffset":78168,"componentType":5126,"count":184,"max":[-390.923462,28.9249554,-755.8858],"min":[-398.48645,13.0473967,-760.37],"type":"VEC3","name":"accessorPositions"},{"bufferView":2,"byteOffset":96240,"componentType":5126,"count":184,"type":"VEC4","name":"accessorTangents"},{"bufferView":1,"byteOffset":80376,"componentType":5126,"count":184,"type":"VEC3","name":"accessorNormals"},{"bufferView":3,"byteOffset":26056,"componentType":5126,"count":184,"type":"VEC2","name":"accessorUVs"},{"bufferView":0,"byteOffset":16932,"componentType":5123,"count":417,"type":"SCALAR","name":"accessorIndices"},{"bufferView":1,"byteOffset":82584,"componentType":5126,"count":155,"max":[-387.8851,14.1536217,-758.9112],"min":[-405.276855,10.5381594,-761.273743],"type":"VEC3","name":"accessorPositions"},{"bufferView":2,"byteOffset":99184,"componentType":5126,"count":155,"type":"VEC4","name":"accessorTangents"},{"bufferView":1,"byteOffset":84444,"componentType":5126,"count":155,"type":"VEC3","name":"accessorNormals"},{"bufferView":3,"byteOffset":27528,"componentType":5126,"count":155,"type":"VEC2","name":"accessorUVs"}],"bufferViews":[{"buffer":0,"byteLength":17768,"name":"bufferViewScalar"},{"buffer":0,"byteOffset":17768,"byteLength":86304,"byteStride":12,"name":"bufferViewFloatVec3"},{"buffer":0,"byteOffset":104072,"byteLength":101664,"byteStride":16,"name":"bufferViewFloatVec4"},{"buffer":0,"byteOffset":205736,"byteLength":28768,"byteStride":8,"name":"bufferViewFloatVec2"}],"buffers":[{"uri":"weiqiang.bin","byteLength":234504}],"materials":[{"pbrMetallicRoughness":{"baseColorFactor":[1.0,1.0,1.0,1.0],"baseColorTexture":{"index":0,"texCoord":0},"metallicFactor":0.0,"roughnessFactor":0.1},"emissiveFactor":[0.0,0.0,0.0],"alphaMode":"OPAQUE","name":"aiStandardSurface14"},{"pbrMetallicRoughness":{"baseColorFactor":[0.064,0.233279988,0.20744,1.0],"metallicFactor":0.0,"roughnessFactor":0.1},"emissiveFactor":[0.0,0.0,0.0],"alphaMode":"OPAQUE","name":"aiStandardSurface8"},{"pbrMetallicRoughness":{"baseColorFactor":[0.8,0.8,0.8,1.0],"baseColorTexture":{"index":1,"texCoord":0},"metallicFactor":0.0,"roughnessFactor":0.1},"emissiveFactor":[0.0,0.0,0.0],"alphaMode":"OPAQUE","name":"aiStandardSurface9"},{"pbrMetallicRoughness":{"baseColorFactor":[0.8,0.20608,0.0,1.0],"metallicFactor":0.6098901,"roughnessFactor":0.1},"emissiveFactor":[0.0,0.0,0.0],"alphaMode":"OPAQUE","name":"aiStandardSurface16"},{"pbrMetallicRoughness":{"baseColorFactor":[0.0,0.2239,0.8956,1.0],"metallicFactor":0.615384638,"roughnessFactor":0.1},"emissiveFactor":[0.0,0.0,0.0],"alphaMode":"OPAQUE","name":"aiStandardSurface18"},{"pbrMetallicRoughness":{"baseColorFactor":[0.6549451,0.6549451,0.6549451,1.0],"metallicFactor":0.445054948,"roughnessFactor":0.1},"emissiveFactor":[0.0,0.0,0.0],"alphaMode":"OPAQUE","name":"aiStandardSurface17"}],"textures":[{"sampler":0,"source":0,"name":"qiangmian.jpg"},{"sampler":0,"source":1,"name":"mentou.jpg"}],"images":[{"uri":"qiangmian.jpg"},{"uri":"mentou.jpg"}],"samplers":[{"magFilter":9729,"minFilter":9987,"wrapS":10497,"wrapT":10497}]}